<svg viewBox="0 0 1202 247" fill="none" xmlns="http://www.w3.org/2000/svg" aria-label="Modyfi" role="graphics-symbol">
<defs>
<linearGradient id="paint0_linear_1_1031" x1="47.7133" y1="146.492" x2="244.717" y2="146.492" gradientUnits="userSpaceOnUse">
<stop stop-color="#FE2B7C"/>
<stop offset="1" stop-color="#FB0BF1"/>
</linearGradient>
</defs>

<path fill-rule="evenodd" clip-rule="evenodd" d="M279.821 211.305C294.258 211.065 307.685 205.145 317.599 194.654C337.042 174.008 335.983 140.416 315.289 119.722L260.185 64.6188C239.539 43.973 205.948 43.9729 185.254 64.5706C180.104 69.6719 180.104 78.0457 185.254 83.147C190.403 88.2964 198.729 88.2964 203.83 83.147C214.273 72.7519 231.214 72.7519 241.609 83.147L296.712 138.251C307.444 148.983 308.215 166.163 298.445 176.558C293.44 181.852 286.702 184.836 279.435 184.98C272.168 184.932 265.335 182.333 260.185 177.184L147.475 64.5225C126.83 43.8766 93.238 43.8766 72.5922 64.5225L16.2853 120.829C6.08274 131.032 0.548152 144.651 0.788779 159.089C1.02941 173.526 6.94895 186.954 17.4403 196.868C38.038 216.31 71.6777 215.252 92.3717 194.558L118.286 168.644C121.24 169.664 124.411 170.217 127.712 170.217C143.659 170.217 156.587 157.29 156.587 141.342C156.587 125.395 143.659 112.467 127.712 112.467C111.764 112.467 98.8366 125.395 98.8366 141.342C98.8366 144.252 99.2669 147.061 100.067 149.709L73.7953 175.981C63.0633 186.713 45.8824 187.483 35.4873 177.714C30.1935 172.709 27.2098 165.971 27.0654 158.704C26.9691 151.437 29.7123 144.603 34.8617 139.454L91.1686 83.147C96.2217 78.0938 102.911 75.3507 110.034 75.3507C117.156 75.3507 123.846 78.1419 128.899 83.147L241.609 195.809C251.619 205.819 264.901 211.305 279.05 211.305H279.821ZM127.713 150.968C133.028 150.968 137.338 146.659 137.338 141.343C137.338 136.027 133.028 131.718 127.713 131.718C122.397 131.718 118.088 136.027 118.088 141.343C118.088 146.659 122.397 150.968 127.713 150.968Z" fill="url(#paint0_linear_1_1031)"/>

<g fill="white">
  <path d="M629.836 123.071C629.836 103.099 637.007 86.111 651.107 72.5396C665.208 58.9682 682.485 52.0381 702.986 52.0381C723.488 52.0381 740.765 58.9682 754.866 72.5396C768.967 86.111 776.137 103.099 776.137 123.071C776.137 143.043 768.967 160.032 754.866 173.603C740.765 187.174 723.488 194.104 702.986 194.104C682.485 194.104 665.208 187.174 651.107 173.603C637.007 160.032 629.836 143.043 629.836 123.071ZM732.487 153.102C740.476 144.872 744.471 135.006 744.471 123.071C744.471 111.136 740.476 101.27 732.487 93.2817C724.499 85.0522 714.681 81.0576 702.939 81.0576C691.196 81.0576 681.138 85.0522 673.149 93.2817C665.449 101.27 661.454 111.088 661.454 123.071C661.454 135.055 665.449 144.872 673.149 153.102C681.138 161.09 690.955 165.085 702.939 165.085C714.922 165.085 724.499 161.09 732.487 153.102Z"/>
  <path d="M894.469 74.3188C894.554 74.5277 894.886 74.4683 894.886 74.2428V5.18262C894.886 4.90647 895.11 4.68262 895.386 4.68262H926.293C926.57 4.68262 926.793 4.90647 926.793 5.18262V184.913C926.793 187.752 924.483 190.062 921.644 190.062H900.036C897.196 190.062 894.886 187.752 894.886 184.913V171.558C894.886 171.388 894.64 171.345 894.579 171.502C889.663 184.104 873.67 192.998 852.054 192.998C833.189 192.998 817.212 186.356 804.17 173.025C791.417 159.454 785.016 142.995 785.016 123.023C785.016 103.051 791.272 86.9774 803.737 73.7429C816.201 60.5084 832.419 53.53 850.13 53.0968C872.542 52.5354 889.268 61.4818 894.469 74.3188ZM885.309 152.283C893.298 144.583 897.292 134.718 897.292 123.023C897.292 111.329 893.298 101.463 885.309 93.7629C877.609 86.0629 867.743 82.0685 856.338 82.0685C844.932 82.0685 835.596 86.0629 827.896 93.7629C820.436 101.463 816.73 111.329 816.73 123.023C816.73 134.718 820.436 144.583 827.896 152.283C835.596 159.983 844.932 163.978 856.338 163.978C867.743 163.978 877.609 159.983 885.309 152.283Z"/>
  <path d="M1072.08 56.0312C1072.43 56.0317 1072.67 56.3839 1072.54 56.7112L1012.65 211.863C1008.65 222.258 1003.89 230.247 998.356 235.829C990.367 243.241 979.732 246.946 966.16 246.946H950.871C950.65 246.946 950.471 246.767 950.471 246.546V219.481C950.471 219.26 950.65 219.081 950.871 219.081H965.342C970.395 219.081 974.101 218.023 977.037 216.146C979.972 214.269 982.667 210.274 984.737 204.692C986.95 198.532 986.806 191.746 984.352 185.634L932.316 56.6715C932.184 56.3428 932.426 55.9844 932.78 55.9844H963.893C964.099 55.9844 964.284 56.1108 964.359 56.3029L1003.6 157.048L1039.75 58.3206C1040.27 56.9174 1041.6 55.9844 1043.1 55.9844L1060.73 56.0143L1064.76 56.0203L1072.08 56.0312Z"/>
  <path d="M1099.37 184.912V85.0038H1081.6H1077.78C1077.51 85.0038 1077.28 84.7799 1077.28 84.5038V56.5321C1077.28 56.256 1077.51 56.0321 1077.78 56.0321H1099.37V49.3911C1099.37 28.8896 1103.61 17.7243 1114 10.0242C1122.23 3.91224 1135.03 0.976562 1152.31 0.976562C1160.5 0.976562 1171.21 0.976566 1173.62 0.976567C1173.89 0.976567 1174.11 1.20042 1174.11 1.47657V27.6194C1174.11 27.8955 1173.89 28.1194 1173.61 28.1194C1168.41 28.1194 1156.3 28.1194 1156.3 28.1194C1137.97 28.1194 1129.98 33.4615 1129.98 46.9848V56.0321H1196.63C1199.47 56.0321 1201.78 58.3422 1201.78 61.1816V184.912C1201.78 187.752 1199.47 190.062 1196.63 190.062H1175.26C1172.43 190.062 1170.11 187.752 1170.11 184.912V85.0038H1130.22V184.912C1130.22 187.752 1127.91 190.062 1125.07 190.062H1104.52C1101.68 190.062 1099.37 187.752 1099.37 184.912Z"/>
  <path d="M618.984 111.28V184.43C618.984 187.559 616.433 190.109 613.305 190.109H592.033C589.435 190.109 587.269 187.992 587.269 185.345V112.29C587.269 100.211 579.136 88.9974 567.2 86.7355C551.175 83.6073 537.074 95.7832 537.074 111.28V184.43C537.074 187.559 534.523 190.109 531.395 190.109H510.124C507.525 190.109 505.359 187.992 505.359 185.345V113.301C505.359 97.7082 511.423 83.1742 521.481 72.346C530 63.1059 541.55 56.609 554.736 54.9246C589.387 50.5452 618.984 77.4474 618.984 111.28Z"/>
  <path d="M537.075 111.279V184.43C537.075 187.558 534.524 190.109 531.396 190.109H510.125C507.526 190.109 505.36 187.991 505.36 185.345V112.29C505.36 100.114 497.227 88.9971 485.292 86.7352C469.266 83.6071 455.262 95.783 455.262 111.279V184.43C455.262 187.558 452.711 190.109 449.583 190.109H428.311C425.712 190.109 423.547 187.991 423.547 185.345V113.301C423.547 84.4253 444.145 58.6781 472.827 54.9243C491.981 52.4699 509.643 59.6887 521.482 72.3457C531.203 82.5002 537.075 96.2642 537.075 111.279Z"/>
</g>
</svg>
