<?xml version="1.0" encoding="utf-8"?>
<!-- Generator: Adobe Illustrator 16.0.0, SVG Export Plug-In . SVG Version: 6.00 Build 0)  -->
<!DOCTYPE svg PUBLIC "-//W3C//DTD SVG 1.1//EN" "http://www.w3.org/Graphics/SVG/1.1/DTD/svg11.dtd">
<svg version="1.1" id="Ebene_1" xmlns="http://www.w3.org/2000/svg" xmlns:xlink="http://www.w3.org/1999/xlink" x="0px" y="0px"
	 width="196.552px" height="125.529px" viewBox="0 0 196.552 125.529" enable-background="new 0 0 196.552 125.529"
	 xml:space="preserve">
<g>
	<path fill="#F6F6F6" d="M196.052,119.359c0,3.118-2.551,5.669-5.669,5.669H6.169c-3.118,0-5.669-2.551-5.669-5.669V6.169
		C0.5,3.051,3.051,0.5,6.169,0.5h184.214c3.118,0,5.669,2.551,5.669,5.669V119.359z"/>
</g>
<g>
	<path fill="#B2B2B2" d="M73.913,10.951c0,0.78-0.638,1.417-1.417,1.417h-55.13c-0.78,0-1.417-0.638-1.417-1.417V9.453
		c0-0.78,0.638-1.417,1.417-1.417h55.13c0.78,0,1.417,0.638,1.417,1.417V10.951z"/>
</g>
<g>
	<path fill="#B2B2B2" d="M87.499,23.951c0,0.78-0.638,1.417-1.417,1.417H29.365c-0.78,0-1.417-0.638-1.417-1.417v-1.498
		c0-0.78,0.638-1.417,1.417-1.417h56.716c0.78,0,1.417,0.638,1.417,1.417V23.951z"/>
</g>
<g>
	<path fill="#B2B2B2" d="M103.087,36.951c0,0.78-0.638,1.417-1.417,1.417H29.365c-0.78,0-1.417-0.638-1.417-1.417v-1.498
		c0-0.78,0.638-1.417,1.417-1.417h72.305c0.78,0,1.417,0.638,1.417,1.417V36.951z"/>
</g>
<g>
	<path fill="#B2B2B2" d="M92.62,49.951c0,0.78-0.638,1.417-1.417,1.417H43.698c-0.78,0-1.417-0.638-1.417-1.417v-1.498
		c0-0.78,0.638-1.417,1.417-1.417h47.505c0.78,0,1.417,0.638,1.417,1.417V49.951z"/>
</g>
<g>
	<path fill="#B2B2B2" d="M84.825,62.951c0,0.78-0.638,1.417-1.417,1.417H43.698c-0.78,0-1.417-0.638-1.417-1.417v-1.498
		c0-0.78,0.638-1.417,1.417-1.417h39.709c0.78,0,1.417,0.638,1.417,1.417V62.951z"/>
</g>
<g>
	<path fill="#B2B2B2" d="M136.936,75.951c0,0.78-0.638,1.417-1.417,1.417h-78.82c-0.78,0-1.417-0.638-1.417-1.417v-1.498
		c0-0.78,0.638-1.417,1.417-1.417h78.82c0.78,0,1.417,0.638,1.417,1.417V75.951z"/>
</g>
<g>
	<path fill="#B2B2B2" d="M179.694,88.951c0,0.78-0.638,1.417-1.417,1.417H56.698c-0.78,0-1.417-0.638-1.417-1.417v-1.498
		c0-0.78,0.638-1.417,1.417-1.417h121.579c0.779,0,1.417,0.638,1.417,1.417V88.951z"/>
</g>
<g>
	<path fill="#B2B2B2" d="M165.219,101.951c0,0.78-0.638,1.417-1.417,1.417H56.698c-0.78,0-1.417-0.638-1.417-1.417v-1.498
		c0-0.78,0.638-1.417,1.417-1.417h107.104c0.779,0,1.417,0.638,1.417,1.417V101.951z"/>
</g>
<g>
	<path fill="#B2B2B2" d="M104.645,114.951c0,0.78-0.638,1.417-1.417,1.417H43.698c-0.78,0-1.417-0.638-1.417-1.417v-1.498
		c0-0.78,0.638-1.417,1.417-1.417h59.529c0.78,0,1.417,0.638,1.417,1.417V114.951z"/>
</g>
<g>
	<path fill="none" stroke="#706F6F" stroke-miterlimit="10" d="M57.577,41.149c1.32,0,1.32,2.835,2.641,2.835
		c1.321,0,1.321-2.835,2.642-2.835c1.323,0,1.323,2.835,2.646,2.835c1.321,0,1.321-2.835,2.642-2.835
		c1.323,0,1.323,2.835,2.646,2.835c1.322,0,1.322-2.835,2.644-2.835c1.323,0,1.323,2.835,2.646,2.835
		c1.323,0,1.323-2.835,2.645-2.835c1.323,0,1.323,2.835,2.646,2.835s1.323-2.835,2.647-2.835c1.321,0,1.321,2.835,2.642,2.835
		c1.323,0,1.323-2.835,2.646-2.835c1.324,0,1.324,2.835,2.648,2.835s1.324-2.835,2.649-2.835s1.325,2.835,2.649,2.835
		c1.327,0,1.327-2.835,2.654-2.835s1.327,2.835,2.653,2.835"/>
</g>
</svg>
