<?xml version="1.0" encoding="utf-8"?>
<!-- Generator: Adobe Illustrator 16.0.0, SVG Export Plug-In . SVG Version: 6.00 Build 0)  -->
<!DOCTYPE svg PUBLIC "-//W3C//DTD SVG 1.1//EN" "http://www.w3.org/Graphics/SVG/1.1/DTD/svg11.dtd">
<svg version="1.1" id="Ebene_1" xmlns="http://www.w3.org/2000/svg" xmlns:xlink="http://www.w3.org/1999/xlink" x="0px" y="0px"
	 width="286.029px" height="250.127px" viewBox="0 0 286.029 250.127" enable-background="new 0 0 286.029 250.127"
	 xml:space="preserve">
<g>
	<path fill="#C6C6C6" d="M60.227-200.75c-0.002,1.247-1.025,2.265-2.272,2.262l-155.628-0.356c-1.247-0.003-2.265-1.026-2.262-2.273
		l0.014-6.083c0.003-1.247,1.026-2.265,2.273-2.262l155.627,0.356c1.247,0.003,2.265,1.026,2.263,2.273L60.227-200.75z"/>
</g>
<g>
	<path fill="#C6C6C6" d="M60.203-223.531c0,1.247-1.021,2.268-2.268,2.268H-77.163c-1.247,0-2.268-1.021-2.268-2.268v-6.083
		c0-1.247,1.021-2.268,2.268-2.268H57.935c1.247,0,2.268,1.021,2.268,2.268V-223.531z"/>
</g>
<g>
	<path fill="#C6C6C6" d="M60.194-212.232c0,1.247-1.021,2.268-2.268,2.268h-135.31c-1.247,0-2.268-1.021-2.268-2.268v-6.084
		c0-1.247,1.021-2.268,2.268-2.268h135.31c1.247,0,2.268,1.021,2.268,2.268V-212.232z"/>
</g>
<g>
	<rect x="186.8" y="-300.074" fill="#DADADA" width="114.75" height="5.803"/>
	<rect x="203.466" y="-287.627" fill="#DADADA" width="123.584" height="5.803"/>
	<rect x="224.134" y="-275.181" fill="#DADADA" width="66.416" height="5.803"/>
	<rect x="224.134" y="-262.734" fill="#DADADA" width="73.416" height="5.803"/>
	<rect x="203.466" y="-250.288" fill="#DADADA" width="142.334" height="5.803"/>
	<rect x="186.8" y="-237.841" fill="#DADADA" width="171.5" height="5.803"/>
	<rect x="203.466" y="-225.395" fill="#DADADA" width="120.834" height="5.803"/>
	<rect x="224.134" y="-212.949" fill="#DADADA" width="114.666" height="5.803"/>
	<rect x="203.466" y="-200.502" fill="#DADADA" width="121.584" height="5.803"/>
	<rect x="186.8" y="-188.056" fill="#DADADA" width="153.833" height="5.803"/>
	<rect x="203.466" y="-175.609" fill="#DADADA" width="154.834" height="5.803"/>
	<rect x="203.466" y="-163.163" fill="#DADADA" width="116.334" height="5.803"/>
	<rect x="224.134" y="-150.716" fill="#DADADA" width="117.416" height="5.803"/>
	<rect x="245.467" y="-138.27" fill="#DADADA" width="81.083" height="5.803"/>
	<rect x="186.8" y="-125.823" fill="#DADADA" width="122.75" height="5.803"/>
	<rect x="203.466" y="-113.376" fill="#DADADA" width="128.334" height="5.803"/>
</g>
<g>
	<path fill="#C6C6C6" d="M57.465-249.605c0,1.559-1.275,2.834-2.834,2.834h-165.83c-1.559,0-2.834-1.275-2.834-2.834v-0.134
		c0-1.559,1.275-2.834,2.834-2.834h165.83c1.559,0,2.834,1.275,2.834,2.834V-249.605z"/>
</g>
<g>
	<path fill="#C6C6C6" d="M57.465-238.226c0,1.559-1.275,2.834-2.834,2.834H-94.532c-1.559,0-2.834-1.275-2.834-2.834v-0.134
		c0-1.559,1.275-2.834,2.834-2.834H54.631c1.559,0,2.834,1.275,2.834,2.834V-238.226z"/>
</g>
<g>
	<path fill="#F6F6F6" d="M57.465-226.846c0,1.559-1.275,2.834-2.834,2.834H-73.866c-1.559,0-2.834-1.275-2.834-2.834v-0.134
		c0-1.559,1.275-2.834,2.834-2.834H54.631c1.559,0,2.834,1.275,2.834,2.834V-226.846z"/>
</g>
<g>
	<path fill="#F6F6F6" d="M57.465-215.466c0,1.559-1.275,2.834-2.834,2.834H-73.866c-1.559,0-2.834-1.275-2.834-2.834v-0.134
		c0-1.559,1.275-2.834,2.834-2.834H54.631c1.559,0,2.834,1.275,2.834,2.834V-215.466z"/>
</g>
<g>
	<path fill="#F6F6F6" d="M57.465-204.086c0,1.559-1.275,2.834-2.834,2.834H-94.532c-1.559,0-2.834-1.275-2.834-2.834v-0.134
		c0-1.559,1.275-2.834,2.834-2.834H54.631c1.559,0,2.834,1.275,2.834,2.834V-204.086z"/>
</g>
<g>
	<path fill="#C6C6C6" d="M57.465-192.706c0,1.559-1.275,2.834-2.834,2.834h-165.83c-1.559,0-2.834-1.275-2.834-2.834v-0.134
		c0-1.559,1.275-2.834,2.834-2.834h165.83c1.559,0,2.834,1.275,2.834,2.834V-192.706z"/>
</g>
<g>
	<path fill="#C6C6C6" d="M57.465-181.326c0,1.559-1.275,2.834-2.834,2.834H-94.532c-1.559,0-2.834-1.275-2.834-2.834v-0.134
		c0-1.559,1.275-2.834,2.834-2.834H54.631c1.559,0,2.834,1.275,2.834,2.834V-181.326z"/>
</g>
<g>
	<path fill="#C6C6C6" d="M57.465-169.946c0,1.559-1.275,2.834-2.834,2.834H-73.866c-1.559,0-2.834-1.275-2.834-2.834v-0.135
		c0-1.559,1.275-2.834,2.834-2.834H54.631c1.559,0,2.834,1.275,2.834,2.834V-169.946z"/>
</g>
<g>
	<path fill="#C6C6C6" d="M57.465-158.566c0,1.559-1.275,2.834-2.834,2.834H-94.532c-1.559,0-2.834-1.275-2.834-2.834v-0.135
		c0-1.559,1.275-2.834,2.834-2.834H54.631c1.559,0,2.834,1.275,2.834,2.834V-158.566z"/>
</g>
<g>
	<path fill="#C6C6C6" d="M57.465-147.187c0,1.559-1.275,2.834-2.834,2.834h-165.83c-1.559,0-2.834-1.275-2.834-2.834v-0.134
		c0-1.559,1.275-2.834,2.834-2.834h165.83c1.559,0,2.834,1.275,2.834,2.834V-147.187z"/>
</g>
<g>
	<path fill="#C6C6C6" d="M57.465-135.807c0,1.559-1.275,2.834-2.834,2.834H-94.532c-1.559,0-2.834-1.275-2.834-2.834v-0.134
		c0-1.559,1.275-2.834,2.834-2.834H54.631c1.559,0,2.834,1.275,2.834,2.834V-135.807z"/>
</g>
<g>
	<path fill="#C6C6C6" d="M57.465-124.427c0,1.559-1.275,2.834-2.834,2.834H-94.532c-1.559,0-2.834-1.275-2.834-2.834v-0.134
		c0-1.559,1.275-2.834,2.834-2.834H54.631c1.559,0,2.834,1.275,2.834,2.834V-124.427z"/>
</g>
<g>
	<path fill="#C6C6C6" d="M57.465-113.047c0,1.559-1.275,2.834-2.834,2.834H-73.866c-1.559,0-2.834-1.275-2.834-2.834v-0.134
		c0-1.559,1.275-2.834,2.834-2.834H54.631c1.559,0,2.834,1.275,2.834,2.834V-113.047z"/>
</g>
<g>
	<path fill="#C6C6C6" d="M57.132-101.667c0,1.559-1.275,2.834-2.834,2.834H-52.865c-1.559,0-2.834-1.275-2.834-2.834v-0.135
		c0-1.559,1.275-2.834,2.834-2.834H54.298c1.559,0,2.834,1.275,2.834,2.834V-101.667z"/>
</g>
<g>
	<path fill="#C6C6C6" d="M56.966-90.288c0,1.559-1.275,2.834-2.834,2.834h-166.33c-1.559,0-2.834-1.275-2.834-2.834v-0.134
		c0-1.559,1.275-2.834,2.834-2.834h166.33c1.559,0,2.834,1.275,2.834,2.834V-90.288z"/>
</g>
<g>
	<path fill="#C6C6C6" d="M56.966-78.908c0,1.559-1.275,2.834-2.834,2.834H-95.483c-1.559,0-2.834-1.275-2.834-2.834v-0.134
		c0-1.559,1.275-2.834,2.834-2.834H54.131c1.559,0,2.834,1.275,2.834,2.834V-78.908z"/>
</g>
<g>
	<path fill="#9D9D9C" d="M65.754-152.929c0,0.315-0.638,0.572-1.417,0.572h-188.954c-0.78,0-1.417-0.257-1.417-0.572
		s0.638-0.572,1.417-0.572H64.337C65.117-153.501,65.754-153.244,65.754-152.929z"/>
</g>
<g>
	<polygon fill="#FFFFFF" points="7.928,-156.769 11.144,-157.2 12.909,-160.769 19.89,-160.612 26.009,-159.122 28.754,-157.514 
		28.715,-151.356 25.342,-143.081 14.792,-142.884 11.458,-147.395 7.614,-150.768 	"/>
	<path fill="#9D9D9C" d="M25.028-160.23c-1.026-1.556-3.033-1.94-4.534-1.083c-1.353-1.444-3.632-1.427-4.973-0.001
		c-2.163-1.24-4.989,0.232-5.079,2.791c-2.12-0.497-4.179,1.09-4.179,3.268v2.613c0,1.503,0.655,2.936,1.799,3.93l4.485,3.905
		c0.195,0.17,0.142,0.256,0.142,1.511c0,0.811,0.658,1.469,1.469,1.469h11.566c0.811,0,1.469-0.658,1.469-1.469
		c0-1.079-0.046-1.412,0.184-1.945l1.966-4.572c0.279-0.652,0.421-1.341,0.421-2.046v-5.253
		C29.764-159.538,27.27-161.183,25.028-160.23z M27.561-151.859c0,0.403-0.082,0.803-0.243,1.174l-1.966,4.574
		c-0.239,0.559-0.361,1.149-0.361,1.756v0.325H14.893v-0.473c0-0.751-0.329-1.467-0.898-1.964l-4.485-3.905
		c-0.663-0.578-1.042-1.405-1.042-2.27v-2.614c0-1.524,2.387-1.539,2.387,0.031v1.893c0,0.212,0.092,0.414,0.252,0.554l0.322,0.28
		c0.306,0.266,0.769,0.234,1.036-0.072c0.114-0.134,0.18-0.305,0.18-0.482v-5.351c0-1.52,2.387-1.548,2.387,0.032v1.228
		c0,0.405,0.329,0.734,0.734,0.734h0.321c0.405,0,0.734-0.329,0.734-0.734v-1.889c0-1.521,2.387-1.546,2.387,0.031v1.858
		c0,0.405,0.329,0.734,0.734,0.734h0.321c0.405,0,0.734-0.329,0.734-0.734v-1.259c0-1.516,2.387-1.55,2.387,0.032v1.228
		c0,0.405,0.329,0.734,0.734,0.734h0.321c0.405,0,0.734-0.329,0.734-0.734c0-1.521,2.387-1.543,2.387,0.031V-151.859z"/>
</g>
<g>
	<path fill="#DADADA" d="M286.029,8.457c0,3.118-2.551,5.669-5.669,5.669H28.697c-3.118,0-5.669-2.551-5.669-5.669V6.128
		c0-3.118,2.551-5.669,5.669-5.669H280.36c3.118,0,5.669,2.551,5.669,5.669V8.457z"/>
</g>
<g>
	<path fill="#C6C6C6" d="M10.963,0c2.338,0,3.295,1.657,2.126,3.682L8.92,10.904c-1.169,2.025-3.083,2.025-4.252,0L0.499,3.682
		C-0.67,1.657,0.287,0,2.625,0H10.963z"/>
</g>
<g>
	<path fill="#DADADA" d="M286.029,29.911c0,3.118-2.551,5.669-5.669,5.669H73.364c-3.118,0-5.669-2.551-5.669-5.669v-2.328
		c0-3.118,2.551-5.669,5.669-5.669H280.36c3.118,0,5.669,2.551,5.669,5.669V29.911z"/>
</g>
<g>
	<path fill="#EDEDED" d="M43.501,24.578c0-2.338,1.657-3.295,3.682-2.126l7.222,4.169c2.025,1.169,2.025,3.083,0,4.252l-7.222,4.169
		c-2.025,1.169-3.682,0.212-3.682-2.126V24.578z"/>
</g>
<g>
	<path fill="#DADADA" d="M286.029,51.365c0,3.118-2.551,5.669-5.669,5.669H73.364c-3.118,0-5.669-2.551-5.669-5.669v-2.328
		c0-3.118,2.551-5.669,5.669-5.669H280.36c3.118,0,5.669,2.551,5.669,5.669V51.365z"/>
</g>
<g>
	<path fill="#C6C6C6" d="M54.963,42.909c2.338,0,3.295,1.657,2.126,3.682l-4.17,7.222c-1.169,2.025-3.083,2.025-4.252,0
		l-4.169-7.222c-1.169-2.025-0.212-3.682,2.126-3.682H54.963z"/>
</g>
<g>
	<path fill="#DADADA" d="M286.029,72.821c0,3.119-2.551,5.669-5.669,5.669H127.363c-3.118,0-5.669-2.551-5.669-5.669v-2.329
		c0-3.118,2.551-5.669,5.669-5.669H280.36c3.118,0,5.669,2.551,5.669,5.669V72.821z"/>
</g>
<g>
	<path fill="#EDEDED" d="M97.501,67.487c0-2.338,1.657-3.295,3.683-2.126l7.221,4.169c2.025,1.169,2.025,3.083,0,4.252l-7.221,4.169
		c-2.025,1.169-3.683,0.213-3.683-2.126V67.487z"/>
</g>
<g>
	<path fill="#B2B2B2" d="M286.029,94.275c0,3.118-2.551,5.669-5.669,5.669H127.363c-3.118,0-5.669-2.551-5.669-5.669v-2.329
		c0-3.118,2.551-5.669,5.669-5.669H280.36c3.118,0,5.669,2.551,5.669,5.669V94.275z"/>
</g>
<g>
	<path fill="#EDEDED" d="M97.501,88.941c0-2.339,1.657-3.295,3.683-2.126l7.221,4.17c2.025,1.169,2.025,3.083,0,4.252l-7.221,4.168
		c-2.025,1.169-3.683,0.213-3.683-2.126V88.941z"/>
</g>
<g>
	<path fill="#B2B2B2" d="M286.029,115.73c0,3.118-2.551,5.669-5.669,5.669H127.363c-3.118,0-5.669-2.551-5.669-5.669v-2.33
		c0-3.118,2.551-5.669,5.669-5.669H280.36c3.118,0,5.669,2.551,5.669,5.669V115.73z"/>
</g>
<g>
	<path fill="#EDEDED" d="M97.501,110.396c0-2.339,1.657-3.295,3.683-2.126l7.221,4.17c2.025,1.169,2.025,3.083,0,4.252l-7.221,4.169
		c-2.025,1.169-3.683,0.213-3.683-2.126V110.396z"/>
</g>
<g>
	<path fill="#DADADA" d="M286.029,137.186c0,3.118-2.551,5.669-5.669,5.669H28.697c-3.118,0-5.669-2.551-5.669-5.669v-2.33
		c0-3.118,2.551-5.669,5.669-5.669H280.36c3.118,0,5.669,2.551,5.669,5.669V137.186z"/>
</g>
<g>
	<path fill="#C6C6C6" d="M10.964,128.728c2.338,0,3.295,1.657,2.126,3.683l-4.17,7.221c-1.169,2.025-3.083,2.025-4.252,0
		l-4.169-7.221c-1.169-2.025-0.212-3.683,2.126-3.683H10.964z"/>
</g>
<g>
	<path fill="#DADADA" d="M286.029,158.64c0,3.118-2.551,5.669-5.669,5.669H73.03c-3.118,0-5.669-2.551-5.669-5.669v-2.33
		c0-3.118,2.551-5.669,5.669-5.669h207.33c3.118,0,5.669,2.551,5.669,5.669V158.64z"/>
</g>
<g>
	<path fill="#EDEDED" d="M43.501,153.305c0-2.339,1.657-3.295,3.682-2.126l7.222,4.17c2.025,1.169,2.025,3.083,0,4.252l-7.222,4.169
		c-2.025,1.169-3.682,0.213-3.682-2.126V153.305z"/>
</g>
<g>
	<path fill="#DADADA" d="M286.029,180.095c0,3.118-2.551,5.669-5.669,5.669H28.697c-3.118,0-5.669-2.551-5.669-5.669v-2.33
		c0-3.118,2.551-5.669,5.669-5.669H280.36c3.118,0,5.669,2.551,5.669,5.669V180.095z"/>
</g>
<g>
	<path fill="#C6C6C6" d="M10.964,171.637c2.338,0,3.295,1.657,2.126,3.683l-4.17,7.221c-1.169,2.025-3.083,2.025-4.252,0
		l-4.169-7.221c-1.169-2.025-0.212-3.683,2.126-3.683H10.964z"/>
</g>
<g>
	<path fill="#DADADA" d="M286.029,201.549c0,3.118-2.551,5.669-5.669,5.669H74.364c-3.118,0-5.669-2.551-5.669-5.669v-2.33
		c0-3.118,2.551-5.669,5.669-5.669H280.36c3.118,0,5.669,2.551,5.669,5.669V201.549z"/>
</g>
<g>
	<path fill="#C6C6C6" d="M54.964,193.091c2.338,0,3.295,1.657,2.126,3.683l-4.17,7.221c-1.169,2.025-3.083,2.025-4.252,0
		l-4.169-7.221c-1.169-2.025-0.212-3.683,2.126-3.683H54.964z"/>
</g>
<g>
	<path fill="#DADADA" d="M286.029,223.004c0,3.118-2.551,5.669-5.669,5.669H126.363c-3.118,0-5.669-2.551-5.669-5.669v-2.33
		c0-3.118,2.551-5.669,5.669-5.669H280.36c3.118,0,5.669,2.551,5.669,5.669V223.004z"/>
</g>
<g>
	<path fill="#EDEDED" d="M97.501,217.669c0-2.339,1.657-3.295,3.683-2.126l7.221,4.17c2.025,1.169,2.025,3.083,0,4.252l-7.221,4.168
		c-2.025,1.169-3.683,0.213-3.683-2.126V217.669z"/>
</g>
<g>
	<path fill="#DADADA" d="M286.029,244.458c0,3.118-2.551,5.669-5.669,5.669H126.363c-3.118,0-5.669-2.551-5.669-5.669v-2.33
		c0-3.118,2.551-5.669,5.669-5.669H280.36c3.118,0,5.669,2.551,5.669,5.669V244.458z"/>
</g>
<g>
	<path fill="#EDEDED" d="M97.501,239.123c0-2.339,1.657-3.295,3.683-2.126l7.221,4.17c2.025,1.169,2.025,3.083,0,4.252l-7.221,4.169
		c-2.025,1.169-3.683,0.213-3.683-2.126V239.123z"/>
</g>
<polyline fill="#FFFFFF" points="245.742,133.313 234.738,122.49 234.378,110.767 240.871,110.225 242.855,104.994 249.168,105.175 
	252.955,103.372 257.104,105.175 261.253,103.913 263.959,106.077 271.533,107.521 273.156,118.703 268.468,131.51 267.746,135.117 
	246.102,135.477 "/>
<path fill="#878787" d="M267.202,104.985c-1.92-2.911-5.674-3.631-8.479-2.025c-2.529-2.7-6.792-2.668-9.298-0.002
	c-4.045-2.319-9.329,0.435-9.498,5.219c-3.964-0.93-7.813,2.038-7.813,6.11v4.886c0,2.812,1.226,5.49,3.364,7.348l8.386,7.306
	c0.366,0.316,0.266,0.478,0.266,2.823c0,1.516,1.23,2.746,2.746,2.746h21.628c1.516,0,2.746-1.23,2.746-2.746
	c0-2.017-0.086-2.64,0.344-3.638l3.677-8.551c0.521-1.219,0.786-2.505,0.786-3.824v-9.823
	C276.056,106.278,271.392,103.203,267.202,104.985z M271.937,120.637c0,0.754-0.153,1.502-0.454,2.195l-3.677,8.555
	c-0.447,1.045-0.676,2.146-0.676,3.283v0.606h-18.882v-0.884c0-1.405-0.615-2.743-1.68-3.671l-8.387-7.305
	c-1.241-1.079-1.949-2.625-1.949-4.244v-4.888c0-2.851,4.464-2.876,4.464,0.06v3.537c0,0.397,0.171,0.775,0.47,1.036l0.604,0.524
	c0.571,0.497,1.438,0.437,1.938-0.133c0.214-0.253,0.337-0.573,0.337-0.903v-10.007c0-2.841,4.461-2.895,4.461,0.061v2.296
	c0,0.757,0.617,1.372,1.374,1.372h0.601c0.758,0,1.373-0.615,1.373-1.372v-3.532c0-2.845,4.464-2.89,4.464,0.06v3.473
	c0,0.757,0.615,1.372,1.373,1.372h0.601c0.757,0,1.374-0.615,1.374-1.372v-2.356c0-2.834,4.462-2.896,4.462,0.061v2.296
	c0,0.757,0.615,1.372,1.373,1.372h0.601c0.759,0,1.374-0.615,1.374-1.372c0-2.846,4.463-2.886,4.463,0.058V120.637z"/>
</svg>
