<?xml version="1.0" encoding="utf-8"?>
<!-- Generator: Adobe Illustrator 16.0.0, SVG Export Plug-In . SVG Version: 6.00 Build 0)  -->
<!DOCTYPE svg PUBLIC "-//W3C//DTD SVG 1.1//EN" "http://www.w3.org/Graphics/SVG/1.1/DTD/svg11.dtd">
<svg version="1.1" id="Ebene_1" xmlns="http://www.w3.org/2000/svg" xmlns:xlink="http://www.w3.org/1999/xlink" x="0px" y="0px"
	 width="191.789px" height="176.5px" viewBox="0 0 191.789 176.5" enable-background="new 0 0 191.789 176.5" xml:space="preserve">
<g>
	<path fill="#C6C6C6" d="M188.928,51.824c-0.003,1.247-1.026,2.265-2.273,2.263L5.364,53.68c-1.247-0.002-2.265-1.025-2.262-2.272
		l0.012-5.254c0.003-1.247,1.026-2.265,2.273-2.263l181.291,0.407c1.247,0.002,2.265,1.025,2.262,2.272L188.928,51.824z"/>
</g>
<g>
	<path fill="#C6C6C6" d="M188.903,28.417c0,1.247-1.021,2.268-2.268,2.268H5.49c-1.247,0-2.268-1.021-2.268-2.268v-5.458
		c0-1.247,1.021-2.268,2.268-2.268h181.146c1.247,0,2.268,1.021,2.268,2.268V28.417z"/>
</g>
<g>
	<path fill="#C6C6C6" d="M188.892,40.342c0,1.247-1.021,2.268-2.268,2.268H5.198c-1.247,0-2.268-1.021-2.268-2.268v-6.084
		c0-1.247,1.021-2.268,2.268-2.268h181.426c1.247,0,2.268,1.021,2.268,2.268V40.342z"/>
</g>
<g>
	<path fill="#DADADA" d="M183.5,2.968c0,1.559-1.275,2.834-2.834,2.834H14.835c-1.559,0-2.834-1.275-2.834-2.834V2.834
		C12.001,1.275,13.276,0,14.835,0h165.83c1.559,0,2.834,1.275,2.834,2.834V2.968z"/>
</g>
<g>
	<path fill="#DADADA" d="M183.5,14.348c0,1.559-1.275,2.834-2.834,2.834H31.502c-1.559,0-2.834-1.275-2.834-2.834v-0.134
		c0-1.559,1.275-2.834,2.834-2.834h149.163c1.559,0,2.834,1.275,2.834,2.834V14.348z"/>
</g>
<g>
	<path fill="#F6F6F6" d="M183.5,25.728c0,1.559-1.275,2.834-2.834,2.834H52.168c-1.559,0-2.834-1.275-2.834-2.834v-0.134
		c0-1.559,1.275-2.834,2.834-2.834h128.497c1.559,0,2.834,1.275,2.834,2.834V25.728z"/>
</g>
<g>
	<path fill="#F6F6F6" d="M183.5,37.108c0,1.559-1.275,2.834-2.834,2.834H52.168c-1.559,0-2.834-1.275-2.834-2.834v-0.134
		c0-1.559,1.275-2.834,2.834-2.834h128.497c1.559,0,2.834,1.275,2.834,2.834V37.108z"/>
</g>
<g>
	<path fill="#F6F6F6" d="M183.5,48.488c0,1.559-1.275,2.834-2.834,2.834H31.502c-1.559,0-2.834-1.275-2.834-2.834v-0.134
		c0-1.559,1.275-2.834,2.834-2.834h149.163c1.559,0,2.834,1.275,2.834,2.834V48.488z"/>
</g>
<g>
	<path fill="#DADADA" d="M183.5,59.868c0,1.559-1.275,2.834-2.834,2.834H14.835c-1.559,0-2.834-1.275-2.834-2.834v-0.134
		c0-1.559,1.275-2.834,2.834-2.834h165.83c1.559,0,2.834,1.275,2.834,2.834V59.868z"/>
</g>
<g>
	<path fill="#DADADA" d="M183.5,71.248c0,1.559-1.275,2.834-2.834,2.834H31.502c-1.559,0-2.834-1.275-2.834-2.834v-0.134
		c0-1.559,1.275-2.834,2.834-2.834h149.163c1.559,0,2.834,1.275,2.834,2.834V71.248z"/>
</g>
<g>
	<path fill="#DADADA" d="M183.5,82.628c0,1.559-1.275,2.834-2.834,2.834H52.168c-1.559,0-2.834-1.275-2.834-2.834v-0.135
		c0-1.559,1.275-2.834,2.834-2.834h128.497c1.559,0,2.834,1.275,2.834,2.834V82.628z"/>
</g>
<g>
	<path fill="#DADADA" d="M183.5,94.007c0,1.559-1.275,2.834-2.834,2.834H31.502c-1.559,0-2.834-1.275-2.834-2.834v-0.135
		c0-1.559,1.275-2.834,2.834-2.834h149.163c1.559,0,2.834,1.275,2.834,2.834V94.007z"/>
</g>
<g>
	<path fill="#DADADA" d="M183.5,105.387c0,1.559-1.275,2.834-2.834,2.834H14.835c-1.559,0-2.834-1.275-2.834-2.834v-0.134
		c0-1.559,1.275-2.834,2.834-2.834h165.83c1.559,0,2.834,1.275,2.834,2.834V105.387z"/>
</g>
<g>
	<path fill="#DADADA" d="M183.5,116.767c0,1.559-1.275,2.834-2.834,2.834H31.502c-1.559,0-2.834-1.275-2.834-2.834v-0.134
		c0-1.559,1.275-2.834,2.834-2.834h149.163c1.559,0,2.834,1.275,2.834,2.834V116.767z"/>
</g>
<g>
	<path fill="#DADADA" d="M183.5,128.146c0,1.559-1.275,2.834-2.834,2.834H31.502c-1.559,0-2.834-1.275-2.834-2.834v-0.134
		c0-1.559,1.275-2.834,2.834-2.834h149.163c1.559,0,2.834,1.275,2.834,2.834V128.146z"/>
</g>
<g>
	<path fill="#DADADA" d="M183.5,139.526c0,1.559-1.275,2.834-2.834,2.834H52.168c-1.559,0-2.834-1.275-2.834-2.834v-0.134
		c0-1.559,1.275-2.834,2.834-2.834h128.497c1.559,0,2.834,1.275,2.834,2.834V139.526z"/>
</g>
<g>
	<path fill="#DADADA" d="M183.167,150.907c0,1.559-1.275,2.834-2.834,2.834H73.169c-1.559,0-2.834-1.275-2.834-2.834v-0.135
		c0-1.559,1.275-2.834,2.834-2.834h107.163c1.559,0,2.834,1.275,2.834,2.834V150.907z"/>
</g>
<g>
	<path fill="#DADADA" d="M183,162.286c0,1.559-1.275,2.834-2.834,2.834H13.836c-1.559,0-2.834-1.275-2.834-2.834v-0.134
		c0-1.559,1.275-2.834,2.834-2.834h166.33c1.559,0,2.834,1.275,2.834,2.834V162.286z"/>
</g>
<g>
	<path fill="#DADADA" d="M183,173.666c0,1.559-1.275,2.834-2.834,2.834H30.552c-1.559,0-2.834-1.275-2.834-2.834v-0.134
		c0-1.559,1.275-2.834,2.834-2.834h149.614c1.559,0,2.834,1.275,2.834,2.834V173.666z"/>
</g>
<g>
	<path fill="#9D9D9C" d="M191.789,99.645c0,0.433-0.638,0.787-1.417,0.787H1.417c-0.78,0-1.417-0.354-1.417-0.787
		c0-0.433,0.638-0.787,1.417-0.787h188.954C191.151,98.858,191.789,99.212,191.789,99.645z"/>
</g>
<g>
	<polygon fill="#FFFFFF" points="133.962,95.805 137.179,95.374 138.944,91.805 145.925,91.961 152.043,93.452 154.789,95.06 
		154.75,101.218 151.376,109.493 140.826,109.689 137.493,105.179 133.649,101.806 	"/>
	<path fill="#9D9D9C" d="M151.063,92.344c-1.026-1.556-3.033-1.94-4.534-1.083c-1.353-1.444-3.632-1.427-4.973-0.001
		c-2.163-1.24-4.989,0.232-5.079,2.791c-2.12-0.497-4.179,1.09-4.179,3.268v2.613c0,1.503,0.655,2.936,1.799,3.93l4.485,3.905
		c0.195,0.17,0.142,0.256,0.142,1.511c0,0.811,0.658,1.469,1.469,1.469h11.566c0.811,0,1.469-0.658,1.469-1.469
		c0-1.079-0.046-1.412,0.184-1.945l1.966-4.572c0.279-0.652,0.421-1.341,0.421-2.046v-5.253
		C155.798,93.036,153.304,91.391,151.063,92.344z M153.595,100.714c0,0.403-0.082,0.803-0.243,1.174l-1.966,4.574
		c-0.239,0.559-0.361,1.149-0.361,1.756v0.325h-10.098v-0.473c0-0.751-0.329-1.467-0.898-1.964l-4.485-3.905
		c-0.663-0.578-1.042-1.405-1.042-2.27v-2.614c0-1.524,2.387-1.539,2.387,0.031v1.893c0,0.212,0.092,0.414,0.252,0.554l0.322,0.28
		c0.306,0.266,0.769,0.234,1.036-0.072c0.114-0.134,0.18-0.305,0.18-0.482v-5.351c0-1.52,2.387-1.548,2.387,0.032v1.228
		c0,0.405,0.329,0.734,0.734,0.734h0.321c0.405,0,0.734-0.329,0.734-0.734v-1.889c0-1.521,2.387-1.546,2.387,0.031v1.858
		c0,0.405,0.329,0.734,0.734,0.734h0.321c0.405,0,0.734-0.329,0.734-0.734v-1.259c0-1.516,2.387-1.55,2.387,0.032v1.228
		c0,0.405,0.329,0.734,0.734,0.734h0.321c0.405,0,0.734-0.329,0.734-0.734c0-1.521,2.387-1.543,2.387,0.031V100.714z"/>
</g>
</svg>
