<?xml version="1.0" encoding="utf-8"?>
<!-- Generator: Adobe Illustrator 16.0.0, SVG Export Plug-In . SVG Version: 6.00 Build 0)  -->
<!DOCTYPE svg PUBLIC "-//W3C//DTD SVG 1.1//EN" "http://www.w3.org/Graphics/SVG/1.1/DTD/svg11.dtd">
<svg version="1.1" id="yana" xmlns="http://www.w3.org/2000/svg" xmlns:xlink="http://www.w3.org/1999/xlink" x="0px" y="0px"
	 width="213.25px" height="128.804px" viewBox="0 0 213.25 128.804" enable-background="new 0 0 213.25 128.804"
	 xml:space="preserve">
<path fill="#EDEDED" d="M201.25,0H12C5.373,0,0,5.373,0,12v4h213.25v-4C213.25,5.373,207.877,0,201.25,0z"/>
<path fill="#EDEDED" d="M0,116.804c0,6.627,5.373,12,12,12h61.25V16H0V116.804z"/>
<rect y="37.999" fill="#F6F6F6" width="73.25" height="7.577"/>
<path fill="#F6F6F6" d="M73.25,16v112.75h128c6.627,0,12-5.373,12-12V16H73.25z"/>
<g>
	<path fill="#DADADA" d="M53.216,26.937c0,1.426-1.275,2.593-2.834,2.593H8.728c-1.559,0-2.834-1.167-2.834-2.593
		c0-1.426,1.275-2.593,2.834-2.593h41.653C51.94,24.343,53.216,25.51,53.216,26.937z"/>
</g>
<g>
	<path fill="#DADADA" d="M66.664,34.358c0,1.426-1.275,2.593-2.834,2.593H16.729c-1.559,0-2.834-1.167-2.834-2.593
		c0-1.426,1.275-2.593,2.834-2.593h47.101C65.388,31.765,66.664,32.932,66.664,34.358z"/>
</g>
<g>
	<path fill="#DADADA" d="M61.387,41.796c0,1.426-1.275,2.593-2.834,2.593H16.729c-1.559,0-2.834-1.167-2.834-2.593
		s1.275-2.593,2.834-2.593h41.824C60.111,39.203,61.387,40.37,61.387,41.796z"/>
</g>
<g>
	<path fill="#DADADA" d="M46.917,49.191c0,1.426-1.275,2.593-2.834,2.593H24.048c-1.559,0-2.834-1.167-2.834-2.593
		c0-1.426,1.275-2.593,2.834-2.593h20.035C45.642,46.598,46.917,47.765,46.917,49.191z"/>
</g>
<g>
	<path fill="#DADADA" d="M60.025,56.613c0,1.426-1.275,2.593-2.834,2.593H16.729c-1.559,0-2.834-1.167-2.834-2.593
		c0-1.426,1.275-2.593,2.834-2.593H57.19C58.75,54.02,60.025,55.187,60.025,56.613z"/>
</g>
<g>
	<path fill="#DADADA" d="M50.833,64.051c0,1.426-1.275,2.593-2.834,2.593H8.728c-1.559,0-2.834-1.167-2.834-2.593
		c0-1.426,1.275-2.593,2.834-2.593h39.27C49.557,61.458,50.833,62.625,50.833,64.051z"/>
</g>
<g>
	<path fill="#DADADA" d="M62.238,71.541c0,1.426-1.275,2.593-2.834,2.593H16.729c-1.559,0-2.834-1.167-2.834-2.593
		s1.275-2.593,2.834-2.593h42.675C60.962,68.947,62.238,70.114,62.238,71.541z"/>
</g>
<g>
	<path fill="#DADADA" d="M66.664,78.962c0,1.426-1.275,2.593-2.834,2.593H16.729c-1.559,0-2.834-1.167-2.834-2.593
		c0-1.426,1.275-2.593,2.834-2.593h47.101C65.388,76.369,66.664,77.536,66.664,78.962z"/>
</g>
<g>
	<path fill="#DADADA" d="M48.449,86.4c0,1.426-1.275,2.593-2.834,2.593H24.048c-1.559,0-2.834-1.167-2.834-2.593
		c0-1.426,1.275-2.593,2.834-2.593h21.567C47.174,83.807,48.449,84.974,48.449,86.4z"/>
</g>
<g>
	<path fill="#DADADA" d="M40.212,8.027c0,1.432-1.275,2.604-2.834,2.604H15.942c-1.559,0-2.834-1.171-2.834-2.604
		s1.275-2.604,2.834-2.604h21.435C38.937,5.424,40.212,6.595,40.212,8.027z"/>
</g>
<g>
	<path fill="#DADADA" d="M73.185,8.027c0,1.432-1.275,2.604-2.834,2.604H48.916c-1.559,0-2.834-1.171-2.834-2.604
		s1.275-2.604,2.834-2.604h21.435C71.91,5.424,73.185,6.595,73.185,8.027z"/>
</g>
<g>
	<path fill="#DADADA" d="M106.159,8.027c0,1.432-1.275,2.604-2.834,2.604H81.889c-1.559,0-2.834-1.171-2.834-2.604
		s1.275-2.604,2.834-2.604h21.435C104.883,5.424,106.159,6.595,106.159,8.027z"/>
</g>
<g>
	<path fill="#DADADA" d="M139.132,8.027c0,1.432-1.275,2.604-2.834,2.604h-21.435c-1.559,0-2.834-1.171-2.834-2.604
		s1.275-2.604,2.834-2.604h21.435C137.856,5.424,139.132,6.595,139.132,8.027z"/>
</g>
<g>
	<path fill="#DADADA" d="M196.096,22.7c0,0.78-0.638,1.417-1.417,1.417H79.834c-0.78,0-1.417-0.638-1.417-1.417v-1.139
		c0-0.78,0.638-1.417,1.417-1.417h114.845c0.78,0,1.417,0.638,1.417,1.417V22.7z"/>
</g>
<g>
	<path fill="#DADADA" d="M196.096,28.873c0,0.78-0.638,1.417-1.417,1.417H79.834c-0.78,0-1.417-0.638-1.417-1.417v-1.138
		c0-0.78,0.638-1.417,1.417-1.417h114.845c0.78,0,1.417,0.638,1.417,1.417V28.873z"/>
</g>
<g>
	<path fill="#DADADA" d="M172.41,35.046c0,0.78-0.638,1.417-1.417,1.417H79.834c-0.78,0-1.417-0.638-1.417-1.417v-1.139
		c0-0.78,0.638-1.417,1.417-1.417h91.159c0.78,0,1.417,0.638,1.417,1.417V35.046z"/>
</g>
<g>
	<path fill="#DADADA" d="M196.096,47.393c0,0.78-0.638,1.417-1.417,1.417H79.834c-0.78,0-1.417-0.638-1.417-1.417v-1.139
		c0-0.78,0.638-1.417,1.417-1.417h114.845c0.78,0,1.417,0.638,1.417,1.417V47.393z"/>
</g>
<g>
	<path fill="#DADADA" d="M196.096,53.565c0,0.78-0.638,1.417-1.417,1.417H79.834c-0.78,0-1.417-0.638-1.417-1.417v-1.138
		c0-0.78,0.638-1.417,1.417-1.417h114.845c0.78,0,1.417,0.638,1.417,1.417V53.565z"/>
</g>
<g>
	<path fill="#DADADA" d="M196.096,59.738c0,0.78-0.638,1.417-1.417,1.417H79.834c-0.78,0-1.417-0.638-1.417-1.417V58.6
		c0-0.78,0.638-1.417,1.417-1.417h114.845c0.78,0,1.417,0.638,1.417,1.417V59.738z"/>
</g>
<g>
	<path fill="#DADADA" d="M153.496,65.912c0,0.78-0.638,1.417-1.417,1.417H79.834c-0.78,0-1.417-0.638-1.417-1.417v-1.139
		c0-0.78,0.638-1.417,1.417-1.417h72.245c0.78,0,1.417,0.638,1.417,1.417V65.912z"/>
</g>
<g>
	<path fill="#DADADA" d="M196.096,78.258c0,0.78-0.638,1.417-1.417,1.417H79.834c-0.78,0-1.417-0.638-1.417-1.417V77.12
		c0-0.78,0.638-1.417,1.417-1.417h114.845c0.78,0,1.417,0.638,1.417,1.417V78.258z"/>
</g>
<g>
	<path fill="#DADADA" d="M109.192,84.431c0,0.78-0.638,1.417-1.417,1.417h-27.94c-0.78,0-1.417-0.638-1.417-1.417v-1.138
		c0-0.78,0.638-1.417,1.417-1.417h27.94c0.78,0,1.417,0.638,1.417,1.417V84.431z"/>
</g>
<g>
	<path fill="#DADADA" d="M196.096,96.367c0,0.78-0.638,1.417-1.417,1.417H79.834c-0.78,0-1.417-0.638-1.417-1.417v-1.139
		c0-0.78,0.638-1.417,1.417-1.417h114.845c0.78,0,1.417,0.638,1.417,1.417V96.367z"/>
</g>
<g>
	<path fill="#DADADA" d="M196.096,102.54c0,0.78-0.638,1.417-1.417,1.417H79.834c-0.78,0-1.417-0.638-1.417-1.417v-1.138
		c0-0.78,0.638-1.417,1.417-1.417h114.845c0.78,0,1.417,0.638,1.417,1.417V102.54z"/>
</g>
<g>
	<path fill="#DADADA" d="M169.002,108.713c0,0.78-0.638,1.417-1.417,1.417H79.834c-0.78,0-1.417-0.638-1.417-1.417v-1.139
		c0-0.78,0.638-1.417,1.417-1.417h87.751c0.78,0,1.417,0.638,1.417,1.417V108.713z"/>
</g>
</svg>
